<svg width="20" height="20" viewBox="0 0 20 20" fill="none" xmlns="http://www.w3.org/2000/svg">
<path d="M10.2917 17.4999H4.16667C3.72464 17.4999 3.30072 17.3244 2.98816 17.0119C2.67559 16.6993 2.5 16.2754 2.5 15.8333V8.33327C2.4998 8.09052 2.55265 7.85062 2.65485 7.63039C2.75705 7.41016 2.90613 7.21492 3.09167 7.05832L8.925 2.05832C9.22567 1.80451 9.6065 1.66528 10 1.66528C10.3935 1.66528 10.7743 1.80451 11.075 2.05832L16.9083 7.05832C17.0938 7.21492 17.2429 7.41016 17.3452 7.63039C17.4473 7.85062 17.5002 8.09052 17.5 8.33327V10.2916" stroke="#334454" stroke-width="1.25" stroke-linecap="round" stroke-linejoin="round"/>
<path d="M12.3333 10.3333C12.2558 10.2298 12.1551 10.1458 12.0393 10.088C11.9237 10.0301 11.796 10 11.6667 10H8.33333C8.11232 10 7.90036 10.0878 7.74407 10.2441C7.5878 10.4003 7.5 10.6123 7.5 10.8333V17.5" stroke="#334454" stroke-width="1.25" stroke-linecap="round" stroke-linejoin="round"/>
<path d="M12.5 15H17.5" stroke="#334454" stroke-width="1.25" stroke-linecap="round" stroke-linejoin="round"/>
<path d="M15 12.5V17.5" stroke="#334454" stroke-width="1.25" stroke-linecap="round" stroke-linejoin="round"/>
</svg>
