<svg width="20" height="34" viewBox="0 0 20 34" fill="none" xmlns="http://www.w3.org/2000/svg">
<g clip-path="url(#clip0_346_8516)">
<g clip-path="url(#clip1_346_8516)">
<path d="M1.37976 10.4494H6.8988V8.37976C6.89949 8.01413 7.04505 7.66297 7.30375 7.40427C7.56177 7.14625 7.91293 7.00069 8.27855 7H17.9369C18.3025 7.00069 18.6536 7.14556 18.9124 7.40427C19.1711 7.66297 19.3159 8.01413 19.3166 8.37976V24.9369C19.3159 25.3025 19.1704 25.6536 18.9124 25.9116C18.6536 26.1704 18.3025 26.3159 17.9369 26.3166H1.37976C1.01413 26.3159 0.663665 26.1704 0.40496 25.9116C0.146255 25.653 0.000690114 25.3025 0 24.9369V11.8292C0.000690114 11.4635 0.146255 11.1124 0.40496 10.8537C0.662975 10.5957 1.01413 10.4501 1.37976 10.4494ZM11.728 24.9369H14.4875V21.4875H11.728V24.9369ZM8.27855 24.9369H10.3482V21.4875C10.3489 21.1218 10.4945 20.7707 10.7532 20.5126C11.0112 20.254 11.3624 20.1084 11.728 20.1077H14.4875C14.8531 20.1084 15.2043 20.254 15.463 20.5126C15.721 20.7707 15.8665 21.1218 15.8673 21.4875V24.9369H17.9369L17.9375 8.37976H8.27855V24.9369ZM1.37976 24.9369H6.8988V11.8292H1.37976V24.9369ZM10.3482 16.6584C10.3482 16.7949 10.3889 16.9281 10.4648 17.0419C10.54 17.155 10.6483 17.2434 10.7738 17.2957C10.9001 17.3482 11.0387 17.3613 11.1726 17.3351C11.3065 17.3082 11.4293 17.2426 11.5258 17.1461C11.6224 17.0495 11.6879 16.9266 11.7148 16.7928C11.7411 16.659 11.728 16.5204 11.6755 16.3941C11.6231 16.2685 11.5348 16.1602 11.4216 16.085C11.3078 16.0091 11.1746 15.9684 11.0381 15.9684C10.8553 15.9684 10.6794 16.0409 10.5504 16.1705C10.4206 16.2995 10.3482 16.4755 10.3482 16.6584ZM10.3482 13.8988C10.3482 14.0354 10.3889 14.1685 10.4648 14.2824C10.54 14.3955 10.6483 14.4838 10.7738 14.5362C10.9001 14.5887 11.0387 14.6018 11.1726 14.5756C11.3065 14.5487 11.4293 14.4831 11.5258 14.3865C11.6224 14.29 11.6879 14.1672 11.7148 14.0333C11.7411 13.8995 11.728 13.7608 11.6755 13.6346C11.6231 13.509 11.5348 13.4007 11.4216 13.3255C11.3078 13.2496 11.1746 13.2089 11.0381 13.2089C10.8553 13.2089 10.6794 13.2814 10.5504 13.4111C10.4206 13.5401 10.3482 13.716 10.3482 13.8988ZM10.3482 11.1393C10.3482 11.2759 10.3889 11.409 10.4648 11.5229C10.54 11.636 10.6483 11.7243 10.7738 11.7767C10.9001 11.8292 11.0387 11.8423 11.1726 11.8161C11.3065 11.7891 11.4293 11.7236 11.5258 11.627C11.6224 11.5304 11.6879 11.4076 11.7148 11.2738C11.7411 11.14 11.728 11.0013 11.6755 10.8751C11.6231 10.7495 11.5348 10.6412 11.4216 10.566C11.3078 10.4901 11.1746 10.4494 11.0381 10.4494C10.8553 10.4494 10.6794 10.5218 10.5504 10.6515C10.4206 10.7805 10.3482 10.9565 10.3482 11.1393ZM14.4875 16.6584C14.4875 16.7949 14.5282 16.9281 14.6041 17.0419C14.6793 17.155 14.7875 17.2434 14.9131 17.2957C15.0394 17.3482 15.1781 17.3613 15.3119 17.3351C15.4457 17.3082 15.5685 17.2426 15.6651 17.1461C15.7617 17.0495 15.8272 16.9266 15.8541 16.7928C15.8804 16.659 15.8673 16.5204 15.8148 16.3941C15.7624 16.2685 15.6741 16.1602 15.5609 16.085C15.4471 16.0091 15.3139 15.9684 15.1774 15.9684C14.9945 15.9684 14.8186 16.0409 14.6896 16.1705C14.5599 16.2995 14.4875 16.4755 14.4875 16.6584ZM14.4875 13.8988C14.4875 14.0354 14.5282 14.1685 14.6041 14.2824C14.6793 14.3955 14.7875 14.4838 14.9131 14.5362C15.0394 14.5887 15.1781 14.6018 15.3119 14.5756C15.4457 14.5487 15.5685 14.4831 15.6651 14.3865C15.7617 14.29 15.8272 14.1672 15.8541 14.0333C15.8804 13.8995 15.8673 13.7608 15.8148 13.6346C15.7624 13.509 15.6741 13.4007 15.5609 13.3255C15.4471 13.2496 15.3139 13.2089 15.1774 13.2089C14.9945 13.2089 14.8186 13.2814 14.6896 13.4111C14.5599 13.5401 14.4875 13.716 14.4875 13.8988ZM14.4875 11.1393C14.4875 11.2759 14.5282 11.409 14.6041 11.5229C14.6793 11.636 14.7875 11.7243 14.9131 11.7767C15.0394 11.8292 15.1781 11.8423 15.3119 11.8161C15.4457 11.7891 15.5685 11.7236 15.6651 11.627C15.7617 11.5304 15.8272 11.4076 15.8541 11.2738C15.8804 11.14 15.8673 11.0013 15.8148 10.8751C15.7624 10.7495 15.6741 10.6412 15.5609 10.566C15.4471 10.4901 15.3139 10.4494 15.1774 10.4494C14.9945 10.4494 14.8186 10.5218 14.6896 10.6515C14.5599 10.7805 14.4875 10.9565 14.4875 11.1393Z" fill="#334454"/>
</g>
</g>
<defs>
<clipPath id="clip0_346_8516">
<rect width="20" height="34" fill="white"/>
</clipPath>
<clipPath id="clip1_346_8516">
<rect width="20" height="20" fill="white" transform="translate(0 7)"/>
</clipPath>
</defs>
</svg>
