<svg width="20" height="24" viewBox="0 0 20 24" fill="none" xmlns="http://www.w3.org/2000/svg">
<path fill-rule="evenodd" clip-rule="evenodd" d="M6.5 12C8.4335 12 10 10.4335 10 8.5C10 6.5665 8.4335 5 6.5 5C4.5665 5 3 6.5665 3 8.5C3 10.4335 4.5665 12 6.5 12ZM9 8.5C9 9.8815 7.8815 11 6.5 11C5.1185 11 4 9.8815 4 8.5C4 7.1185 5.1185 6 6.5 6C7.8815 6 9 7.1185 9 8.5ZM0 19V16.2C0 14.072 4.3305 13 6.5 13C7.943 13 10.3425 13.4745 11.7875 14.4185C12.8175 14.14 13.947 14 14.75 14C15.679 14 16.9255 14.187 17.955 14.565C18.468 14.754 18.9595 15.002 19.331 15.323C19.7055 15.6465 20 16.084 20 16.633V19H0ZM1 16.2C1 16.0415 1.073 15.8245 1.383 15.5425C1.6995 15.2545 2.1865 14.9755 2.803 14.7325C4.0385 14.245 5.5385 14 6.5 14C7.4615 14 8.962 14.245 10.1965 14.7325C10.8135 14.9755 11.3005 15.2545 11.6165 15.5425C11.927 15.8245 12 16.0415 12 16.2V18H1V16.2ZM12.6765 15.235C13.433 15.0785 14.1915 15 14.75 15C15.5735 15 16.7015 15.17 17.61 15.504C18.0645 15.671 18.432 15.868 18.6775 16.08C18.92 16.2895 19 16.4735 19 16.6335V18H13V16.2C13 15.85 12.8825 15.5275 12.6765 15.235ZM17.5 10.25C17.5 11.7695 16.2695 13 14.75 13C14.0207 13 13.3212 12.7103 12.8055 12.1945C12.2897 11.6788 12 10.9793 12 10.25C12 8.7305 13.2305 7.5 14.75 7.5C16.2695 7.5 17.5 8.7305 17.5 10.25ZM14.75 12C15.717 12 16.5 11.217 16.5 10.25C16.5 9.283 15.717 8.5 14.75 8.5C14.2859 8.5 13.8408 8.68437 13.5126 9.01256C13.1844 9.34075 13 9.78587 13 10.25C13 11.217 13.783 12 14.75 12Z" fill="#334454"/>
</svg>
