<svg width="600" height="77" viewBox="0 0 600 77" fill="none" xmlns="http://www.w3.org/2000/svg">
<g clip-path="url(#clip0_51_3853)">
<path d="M48.029 2.16309C57.9173 2.16309 69.3202 4.26529 76.3688 9.17047V16.1779C69.3202 10.0756 58.1212 7.6668 48.1309 7.6668C23.9416 7.6668 8.28626 19.7984 8.28626 38.222C8.28626 56.6457 24.1164 68.7772 48.6406 68.7772C58.6309 68.7772 69.3202 66.2662 76.3688 60.2661V67.2735C69.3202 72.1787 58.5144 74.281 48.5387 74.281C20.3008 74.281 2.14062 59.8574 2.14062 38.222C2.14062 16.5867 20.0969 2.16309 48.029 2.16309Z" fill="white"/>
<path d="M48.5412 75.0249C19.8955 75.0249 1.40039 60.5722 1.40039 38.2215C1.40039 15.8708 19.7208 1.41797 48.0315 1.41797C59.6091 1.41797 70.3713 4.08953 76.7936 8.57135L77.114 8.79037V17.827L75.8761 16.7613C69.745 11.4619 59.6383 8.4254 48.1188 8.4254C24.3664 8.4254 9.03146 20.1336 9.03146 38.2361C9.03146 56.3385 24.5703 68.0467 48.6285 68.0467C59.7256 68.0467 69.6577 65.0101 75.8761 59.7108L77.114 58.6597V67.6671L76.7936 67.8861C70.2693 72.4264 59.9586 75.0395 48.5412 75.0395V74.9957V75.0249ZM48.0315 2.90707C20.6237 2.90707 2.88583 16.7613 2.88583 38.2215C2.88583 59.6816 20.7984 73.5359 48.5266 73.5359C59.4635 73.5359 69.3082 71.1125 75.614 66.8642V61.7984C69.0897 66.7182 59.3761 69.5066 48.6285 69.5066C23.6674 69.5066 7.53146 57.2144 7.53146 38.2069C7.53146 19.1993 23.4635 6.90711 48.1188 6.90711C59.2596 6.90711 69.1625 9.69546 75.614 14.6006V9.53487C69.381 5.35963 59.114 2.86328 48.0169 2.86328L48.0315 2.90707Z" fill="white"/>
<path d="M48.5374 75.6534C34.4112 75.6534 22.4403 72.1205 13.8918 65.4342C5.29955 58.7042 0.755859 49.288 0.755859 38.2075C0.755859 27.1271 5.2413 17.7109 13.7607 10.9809C22.2073 4.29462 34.0762 0.761719 48.0423 0.761719C59.751 0.761719 70.6442 3.47706 77.1685 8.03187L77.751 8.42607V19.1853L75.45 17.1999C69.45 12.0027 59.4743 9.02462 48.1151 9.02462C24.7704 9.02462 9.66848 20.47 9.66848 38.1929C9.66848 55.9158 24.9452 67.3612 48.6248 67.3612C59.5617 67.3612 69.3481 64.3685 75.45 59.1713L77.7364 57.2297V67.9598L77.1539 68.354C70.5277 72.9672 60.0714 75.6242 48.5374 75.6242H48.552L48.5374 75.6534ZM48.0277 3.55009C20.9986 3.55009 3.53741 17.1707 3.53741 38.2221C3.53741 59.2736 21.2025 72.8942 48.5374 72.8942C59.183 72.8942 68.7656 70.5876 74.984 66.5292V63.04C68.3724 67.5802 58.9792 70.1496 48.6394 70.1496C23.285 70.1496 6.91605 57.6239 6.91605 38.2221C6.91605 18.8204 23.0811 6.29462 48.1296 6.29462C58.819 6.29462 68.4306 8.84941 74.9694 13.375V9.90051C68.8238 5.90045 58.819 3.53547 48.0277 3.53547V3.55009Z" fill="white"/>
<path d="M48.5388 76.3973C34.2524 76.3973 22.1214 72.806 13.4272 66.0176C4.6602 59.1562 0 49.5356 0 38.207C0 26.8783 4.58738 17.2577 13.2816 10.3963C21.8738 3.60787 33.8738 0.0166016 48.0291 0.0166016C59.8689 0.0166016 70.9369 2.79036 77.5777 7.40357L78.4806 8.03131V20.8052L74.9418 17.7541C69.0728 12.6737 59.301 9.76856 48.1019 9.76856C25.1942 9.76856 10.3981 20.9366 10.3981 38.1923C10.3981 55.4481 25.3981 66.6307 48.5971 66.6307C59.3738 66.6307 68.9709 63.7256 74.9418 58.616L78.466 55.6233V68.3534L77.5631 68.9957C70.8058 73.6965 60.2185 76.3827 48.4952 76.3827H48.5388V76.3973ZM48.0291 1.54945C34.2233 1.54945 22.5437 5.02398 14.2136 11.608C5.91262 18.1775 1.5 27.3892 1.5 38.2507C1.5 49.1122 5.94175 58.3094 14.3592 64.8934C22.7621 71.4775 34.5874 74.952 48.5388 74.952C59.9418 74.952 70.2233 72.368 76.733 67.8278L76.9952 67.6526V58.9372L75.9466 59.8423C69.699 65.1563 59.7524 68.1928 48.6408 68.1928C24.5243 68.1928 8.94175 56.4408 8.94175 38.2799C8.94175 20.1191 24.3204 8.36709 48.1311 8.36709C59.6796 8.36709 69.8155 11.4182 75.9466 16.7176L76.9952 17.6373V8.90724L76.733 8.73206C70.3107 4.27944 59.5922 1.60786 48.0291 1.60786V1.56407V1.54945ZM48.5388 73.6673C20.7379 73.6673 2.79612 59.7547 2.79612 38.2507C2.79612 16.7467 20.5631 2.81958 48.0291 2.81958C58.9078 2.81958 69.1311 5.24294 75.3932 9.30139L75.7427 9.52041V14.8197L74.5631 14.0168C68.068 9.53499 58.6893 7.06778 48.1456 7.06778C23.5631 7.06778 7.67476 19.3161 7.67476 38.2507C7.67476 57.1853 23.767 69.4337 48.6553 69.4337C58.8495 69.4337 68.0388 66.9665 74.5631 62.4701L75.7427 61.6672V66.9665L75.3932 67.1855C69.0874 71.3023 59.2864 73.6673 48.5243 73.6673H48.5388ZM48.0291 4.29403C21.4515 4.29403 4.28155 17.6227 4.28155 38.2216C4.28155 58.8204 21.6408 72.1491 48.5243 72.1491C58.7913 72.1491 68.1262 69.9593 74.2136 66.1198V64.4118C67.5291 68.587 58.5 70.879 48.6262 70.879C22.835 70.879 6.16019 58.0467 6.16019 38.207C6.16019 18.3672 22.6311 5.53493 48.1311 5.53493C58.3544 5.53493 67.5583 7.82696 74.2282 11.9876V10.2941C68.1845 6.51306 58.4272 4.26485 48.0291 4.26485V4.29403Z" fill="white"/>
<path d="M93.3027 3.16992H99.4484V35.5207H166.817V3.16992H172.963V73.2877H166.817V40.9369H99.4484V73.2877H93.3027V3.16992Z" fill="white"/>
<path d="M173.724 74.0317H166.078V41.6809H100.194V74.0317H92.5488V2.43945H100.194V34.7903H166.078V2.43945H173.724V74.0317ZM167.578 72.5427H172.224V3.91394H167.578V36.2648H98.709V3.91394H94.0634V72.5427H98.709V40.1918H167.578V72.5427Z" fill="white"/>
<path d="M174.376 74.6457H165.463V42.2948H100.876V74.6457H91.9629V1.7832H100.876V34.1341H165.463V1.7832H174.376V74.6457ZM168.215 71.9011H171.594V4.54239H168.215V36.8932H98.0648V4.54239H94.6862V71.9011H98.0648V39.5502H168.215V71.9011Z" fill="white"/>
<path d="M175.125 75.3905H164.698V43.0397H101.611V75.3905H91.1836V1.03906H101.611V33.3899H164.698V1.03906H175.125V75.3905ZM166.184 73.9015H173.611V2.52812H166.184V34.8789H100.082V2.52812H92.669V73.9015H100.082V41.5506H166.184V73.9015ZM172.329 72.6314H167.451V40.2805H98.8001V72.6314H93.9215V3.78359H98.8001V36.1345H167.451V3.78359H172.329V72.6314ZM168.951 71.1423H170.829V5.25808H168.951V37.6089H97.3147V5.25808H95.436V71.1423H97.3147V38.7915H168.951V71.1423Z" fill="white"/>
<path d="M223.721 3.16992H242.173L277.561 73.2877H271.008L261.833 55.1561H203.945L194.77 73.2877H188.318L223.707 3.16992H223.721ZM259.415 49.9297L238.532 8.77584H227.231L206.347 49.9297H259.415Z" fill="white"/>
<path d="M278.786 74.0317H270.558L261.383 55.9001H204.412L195.238 74.0317H187.111L223.257 2.43945H242.64L278.786 74.0317ZM271.461 72.5427H276.34L241.694 3.91394H224.174L189.529 72.5427H194.306L203.48 54.411H262.286L271.461 72.5427ZM260.626 50.6737H205.155L226.781 8.00158H238.985L260.611 50.6737H260.626ZM207.587 49.1847H258.208L238.097 9.50525H227.728L207.616 49.1847H207.602H207.587Z" fill="white"/>
<path d="M279.811 74.6457H270.156L260.981 56.5139H204.811L195.636 74.6457H186.068L222.855 1.7832H243.025L279.811 74.6457ZM271.86 71.9011H275.311L241.306 4.54239H224.573L190.568 71.9011H193.918L203.093 53.7694H262.685L271.86 71.9011ZM261.651 51.3168H204.097L226.379 7.38912H239.384L261.665 51.3168H261.651ZM208.612 48.5722H257.165L237.68 10.1629H228.097L208.612 48.5722Z" fill="white"/>
<path d="M281.011 75.3905H269.696L260.521 57.2589H205.283L196.108 75.3905H184.895L222.438 1.03906H243.526L281.069 75.3905H281.055H281.011ZM270.598 73.9015H278.579L242.535 2.52812H223.297L187.254 73.9015H195.132L204.307 55.7697H261.409L270.584 73.9015H270.598ZM276.496 72.6314H271.356L262.181 54.4997H203.506L194.331 72.6314H189.293L224.04 3.78359H241.705L276.453 72.6314H276.496ZM272.288 71.1423H274.064L240.817 5.25808H224.987L191.739 71.1423H193.414L202.589 53.0107H263.113L272.288 71.1423ZM262.851 52.0471H202.88L225.904 6.63037H239.827L262.851 52.0471ZM205.297 50.5581H260.419L238.909 8.10486H226.822L205.312 50.5581H205.297ZM258.336 49.2879H207.351L227.579 9.38955H238.094L258.322 49.2879H258.336ZM209.797 47.7989H255.904L237.191 10.8786H228.511L209.797 47.7989Z" fill="white"/>
<path d="M292.787 3.16992H304.088L337.365 64.6745H341.108L375.083 3.16992H386.384V73.2877H380.544V9.4766H377.923L343.743 71.5797H334.671L301.292 9.4766H298.671V73.2877H292.831V3.16992H292.816H292.787Z" fill="white"/>
<path d="M387.139 74.0317H379.799V10.2206H378.358L344.178 72.3237H334.217L300.838 10.2206H299.396V74.0317H292.057V2.43945H304.552L337.828 63.944H340.683L374.659 2.43945H387.154V74.0317H387.139ZM381.299 72.5427H385.639V3.91394H375.532L341.557 65.4185H336.926L303.649 3.91394H293.542V72.5427H297.896V8.73151H301.712L335.091 70.8346H343.275L377.455 8.73151H381.27V72.5427H381.285H381.299Z" fill="white"/>
<path d="M387.76 74.6457H379.124V10.8345H378.716L344.536 72.9375H333.803L300.425 10.8345H300.017V74.6457H291.381V1.7832H304.881L338.158 63.2878H340.24L374.216 1.7832H387.716V74.6457H387.73H387.76ZM381.92 71.9011H384.992V4.54239H375.891L341.915 66.047H336.541L303.264 4.54239H294.192V71.9011H297.264V8.08988H302.099L335.478 70.193H342.891L377.07 8.08988H381.905V71.9011H381.92Z" fill="white"/>
<path d="M388.503 75.3905H378.381V12.9808L344.974 73.6824H333.352L300.76 13.0392V75.3905H290.639V1.03906H305.333L338.61 62.5436H339.804L373.779 1.03906H388.474V75.3905H388.517H388.503ZM379.896 73.9015H387.017V2.52812H374.711L340.736 64.0327H337.765L304.488 2.52812H292.182V73.9015H299.304V10.0903H300.906L334.284 72.1934H344.129L378.309 10.0903H379.925V73.9015H379.896ZM385.736 72.6314H381.163V8.82018H377.522L343.343 70.9233H335.027L301.648 8.82018H298.008V72.6314H293.435V3.78359H303.702L336.978 65.2882H341.464L375.44 3.78359H385.736V72.6314ZM382.663 71.1423H384.236V5.25808H376.328L342.352 66.7627H336.09L302.813 5.25808H294.935V71.1423H296.508V7.33112H302.551L335.93 69.4342H342.454L376.634 7.33112H382.663V71.1423Z" fill="white"/>
<path d="M406.562 3.16989H476.145V8.5714H412.708V35.6229H470.101V40.8201H412.708V67.8716H476.145V73.2732H406.562V3.15527V3.16989Z" fill="white"/>
<path d="M476.886 74.0317H405.818V2.43945H476.886V9.33007H413.449V34.8925H470.843V41.5933H413.449V67.1558H476.886V74.0463V74.0317ZM407.304 72.5427H475.386V68.6302H411.949V40.1042H469.343V36.3962H411.949V7.87019H475.386V3.95774H407.304V72.5865V72.5427Z" fill="white"/>
<path d="M477.518 74.6457H405.154V1.7832H477.518V9.95852H414.081V34.2508H471.475V42.2218H414.081V66.5141H477.518V74.6894V74.6457ZM407.921 71.9011H474.737V69.2441H411.3V39.448H468.693V36.9954H411.3V7.19937H474.737V4.54239H407.921V71.9011Z" fill="white"/>
<path d="M478.278 75.3905H404.414V1.03906H478.278V10.7034H414.841V33.5066H472.234V42.9667H414.841V65.77H478.278V75.4197V75.376V75.3905ZM405.914 73.9015H476.764V67.2298H413.327V41.4484H470.72V34.9665H413.327V9.18515H476.764V2.51351H405.914V73.8869V73.9015ZM475.511 72.6314H407.21V3.78359H475.511V7.91507H412.074V36.2221H469.467V40.1637H412.074V68.4707H475.511V72.6022V72.6314ZM408.681 71.1715H473.997V70.0035H410.56V38.7184H467.953V37.7549H410.56V6.4698H473.997V5.30188H408.681V71.1715Z" fill="white"/>
<path d="M492.855 3.16984C511.205 3.16984 520.686 2.57129 539.254 2.57129C559.22 2.57129 574.351 12.8926 574.351 26.2067C574.351 37.6375 562.846 47.1413 547.831 48.9369L573.244 73.2731H564.666L540.273 49.2435H498.928V73.2731H492.885V3.15523H492.87L492.855 3.16984ZM542.385 44.0464C557.603 44.0464 568.205 35.2287 568.205 26.3235C568.205 17.4182 557.006 8.08962 539.355 8.08962C522.914 8.08962 512.326 8.68817 498.914 8.68817V43.9442C506.064 43.9442 527.865 44.0464 542.37 44.0464H542.385Z" fill="white"/>
<path d="M575.09 74.0325H564.357L564.139 73.8135L539.964 49.9738H499.682V74.0033H492.139V2.41097H492.881C502.012 2.41097 509.09 2.2504 515.92 2.10441C522.809 1.95843 529.944 1.79785 539.265 1.79785C559.697 1.79785 575.105 12.2798 575.105 26.1778C575.105 37.5064 564.415 47.127 549.459 49.4482L575.09 74.0033V74.0325ZM564.983 72.5726H571.391L546.182 48.4117L547.741 48.2365C562.478 46.47 573.59 37.01 573.59 26.2362C573.59 13.1849 558.838 3.34532 539.25 3.34532C529.944 3.34532 522.838 3.50589 515.949 3.65188C509.294 3.79787 502.42 3.92929 493.61 3.95848V72.5872H498.153V48.5576H540.561L540.779 48.7766L564.954 72.6164H564.969L564.983 72.5726ZM542.381 44.7912C533.847 44.7912 522.809 44.7474 513.692 44.7328C507.299 44.7182 501.867 44.689 498.896 44.689H498.153V7.94392H498.896C505.245 7.94392 510.969 7.79792 516.983 7.66654C523.711 7.50595 530.687 7.34536 539.323 7.34536C557.833 7.34536 568.915 16.9805 568.915 26.3237C568.915 35.667 558.765 44.7912 542.352 44.7912H542.367H542.381ZM499.668 43.1999C502.741 43.1999 507.809 43.1999 513.721 43.2437C522.823 43.2583 533.862 43.3021 542.381 43.3021C554.483 43.3021 567.444 36.4699 567.444 26.3092C567.444 17.7105 556.93 8.81985 539.352 8.81985C530.716 8.81985 523.77 8.98044 517.042 9.14102C511.245 9.28701 505.741 9.40381 499.653 9.4184V43.1853H499.668V43.1999Z" fill="white"/>
<path d="M576.665 74.6455H564.097L539.704 50.6159H500.311V74.6455H491.5V1.78304H492.898C502.029 1.78304 509.092 1.62247 515.922 1.47648C522.811 1.3305 529.976 1.16992 539.267 1.16992C560.063 1.16992 575.748 11.9292 575.748 26.1922C575.748 37.5208 565.422 47.156 550.83 49.8714L576.709 74.6455H576.694H576.665ZM565.248 71.8863H569.82L544.772 47.9152L547.655 47.5793C562.087 45.8567 572.966 36.6595 572.966 26.2214C572.966 13.7249 558.17 3.95829 539.252 3.95829C529.976 3.95829 522.84 4.11886 515.966 4.26485C509.471 4.41084 502.772 4.54222 494.252 4.57141V71.9301H497.529V47.9006H540.825L565.218 71.9301H565.233L565.248 71.8863ZM542.384 45.3895C533.85 45.3895 522.811 45.3458 513.694 45.3312C507.301 45.3312 501.869 45.2873 498.913 45.2873H497.515V7.27219H498.913C505.262 7.27219 510.956 7.1262 517 6.99481C523.728 6.83423 530.704 6.67364 539.354 6.67364C554.209 6.67364 569.573 14.0022 569.573 26.2944C569.573 35.4916 559.16 45.4041 542.369 45.4041L542.384 45.3895ZM500.296 42.5136C503.413 42.5136 508.204 42.5136 513.694 42.5574C522.796 42.572 533.835 42.6158 542.354 42.6158C554.165 42.6158 566.791 36.0464 566.791 26.2652C566.791 17.9731 556.524 9.41821 539.34 9.41821C530.733 9.41821 523.772 9.5788 517.044 9.73938C511.422 9.88537 506.107 10.0022 500.282 10.0168V42.5282L500.296 42.5136Z" fill="white"/>
<path d="M578.532 75.3903H563.795L563.576 75.1713L539.401 51.3315H501.071V75.3611H490.746V1.00961H492.887C501.989 1.00961 509.023 0.849033 515.809 0.703046H515.969C522.858 0.54246 529.979 0.396484 539.256 0.396484C560.489 0.396484 576.494 11.4769 576.494 26.1633C576.494 37.3897 566.649 47.1417 552.363 50.2805L578.532 75.3611V75.3903ZM564.421 73.9159H574.833L549.261 49.4191L550.702 49.1563C565.018 46.4994 575.023 37.0686 575.023 26.2071C575.023 12.3675 559.659 1.92934 539.285 1.92934C530.008 1.92934 522.887 2.08991 516.013 2.2359L515.838 1.49139V2.2359C509.052 2.38189 501.989 2.5425 492.901 2.5425H492.261V73.9159H499.571V49.8863H540.013L540.231 50.1053L564.406 73.945H564.421V73.9159ZM571.673 72.6312H564.945L564.727 72.4121L540.552 48.5723H498.304V72.6019H493.528V3.75418H494.27C502.702 3.75418 509.372 3.59361 515.824 3.44762H515.969C522.916 3.28703 530.023 3.14101 539.27 3.14101C558.596 3.14101 573.741 13.2434 573.741 26.1487C573.741 36.9664 562.586 46.4848 547.79 48.2512L546.45 48.4118L571.702 72.5873H571.688L571.673 72.6312ZM565.542 71.1713H567.945L543.1 47.3752L547.571 46.8351C561.625 45.1562 572.212 36.2802 572.212 26.1925C572.212 14.1193 557.736 4.67391 539.241 4.67391C530.008 4.67391 522.916 4.83448 516.042 4.98047H515.824C509.562 5.12646 503.096 5.25784 494.998 5.28703V71.1567H496.775V47.1271H541.149L541.367 47.3461L565.542 71.1858V71.1713ZM542.372 46.1782C534.246 46.1782 523.877 46.1344 515.037 46.1198H513.435C507.144 46.1052 501.814 46.076 498.901 46.076H496.761V6.58634H498.901C505.207 6.58634 510.887 6.44035 516.887 6.30896C523.673 6.14838 530.634 5.98779 539.329 5.98779C554.547 5.98779 570.304 13.5938 570.304 26.3531C570.304 35.8861 559.615 46.2074 542.343 46.2074H542.358L542.372 46.1782ZM498.261 44.5723H498.901C501.814 44.5723 507.144 44.5723 513.435 44.6161H515.037C523.877 44.6599 534.261 44.6745 542.372 44.6745C558.698 44.6745 568.833 35.1415 568.833 26.3093C568.833 14.4989 553.848 7.43305 539.358 7.43305C530.664 7.43305 523.731 7.59364 517.018 7.75423C510.931 7.90021 505.251 8.03161 498.931 8.03161H498.29V44.5577H498.275L498.261 44.5723ZM542.372 43.4044C533.838 43.4044 522.799 43.3607 513.712 43.3461C508.207 43.3461 503.416 43.3022 500.314 43.3022H499.571V9.31631H500.314C506.154 9.30171 511.455 9.17031 517.047 9.03893C523.761 8.87834 530.693 8.71775 539.358 8.71775C557.008 8.71775 567.552 17.6668 567.552 26.3093C567.552 36.5284 554.532 43.3898 542.358 43.3898L542.372 43.4044ZM501.028 41.857C504.144 41.857 508.615 41.8569 513.683 41.9007C522.785 41.9153 533.809 41.9592 542.343 41.9592C553.79 41.9592 566.037 35.6963 566.037 26.3531C566.037 18.4405 556.047 10.2506 539.329 10.2506C530.678 10.2506 523.746 10.4112 517.047 10.5718C511.673 10.6886 506.576 10.82 501.013 10.8492V41.8716L501.028 41.857Z" fill="white"/>
<path d="M591.713 3.16992H597.859V73.2877H591.713V3.16992Z" fill="white"/>
<path d="M598.601 74.0317H590.955V2.43945H598.601V74.0317ZM592.455 72.5427H597.101V3.91394H592.455V72.5427Z" fill="white"/>
<path d="M599.245 74.6457H590.332V1.7832H599.245V74.6457ZM593.084 71.9011H596.463V4.54239H593.084V71.9011Z" fill="white"/>
<path d="M600.002 75.3905H589.59V1.03906H600.002V75.3905ZM591.061 73.9015H598.473V2.52812H591.061V73.9015ZM597.221 72.6314H592.342V3.78359H597.221V72.6314ZM593.828 71.1423H595.706V5.25808H593.828V71.1423Z" fill="white"/>
</g>
<defs>
<clipPath id="clip0_51_3853">
<rect width="600" height="76.3975" fill="white"/>
</clipPath>
</defs>
</svg>
