<svg width="140" height="18" viewBox="0 0 140 18" fill="none" xmlns="http://www.w3.org/2000/svg">
<g clip-path="url(#clip0_567_1872)">
<path d="M11.2073 0.505432C13.5146 0.505432 16.1752 0.995946 17.8199 2.14049V3.77556C16.1752 2.35169 13.5621 1.78963 11.2311 1.78963C5.58689 1.78963 1.93398 4.62034 1.93398 8.91919C1.93398 13.218 5.62767 16.0487 11.35 16.0487C13.6811 16.0487 16.1752 15.4628 17.8199 14.0628V15.6979C16.1752 16.8424 13.6539 17.3329 11.3262 17.3329C4.73738 17.3329 0.5 13.9674 0.5 8.91919C0.5 3.87094 4.68981 0.505432 11.2073 0.505432Z" fill="white"/>
<path d="M11.3267 17.5065C4.64268 17.5065 0.327148 14.1342 0.327148 8.91903C0.327148 3.70386 4.60191 0.331543 11.2077 0.331543C13.9092 0.331543 16.4204 0.954908 17.9189 2.00067L17.9937 2.05177V4.16032L17.7048 3.91165C16.2742 2.67513 13.916 1.96661 11.2281 1.96661C5.68589 1.96661 2.10773 4.69853 2.10773 8.92243C2.10773 13.1463 5.73346 15.8782 11.3471 15.8782C13.9364 15.8782 16.2538 15.1697 17.7048 13.9332L17.9937 13.688V15.7897L17.9189 15.8408C16.3966 16.9002 13.9907 17.5099 11.3267 17.5099V17.4997V17.5065ZM11.2077 0.679C4.81259 0.679 0.67375 3.91165 0.67375 8.91903C0.67375 13.9264 4.85336 17.159 11.3233 17.159C13.8752 17.159 16.1723 16.5936 17.6437 15.6023V14.4203C16.1213 15.5683 13.8548 16.2189 11.3471 16.2189C5.52278 16.2189 1.75773 13.3507 1.75773 8.91562C1.75773 4.48051 5.47521 1.61234 11.2281 1.61234C13.8276 1.61234 16.1383 2.26296 17.6437 3.4075V2.22549C16.1893 1.25126 13.7937 0.668781 11.2043 0.668781L11.2077 0.679Z" fill="white"/>
<path d="M11.3258 17.6528C8.02967 17.6528 5.23647 16.8285 3.24181 15.2684C1.23695 13.698 0.176758 11.5009 0.176758 8.91546C0.176758 6.33002 1.22336 4.1329 3.21122 2.56256C5.1821 1.00244 7.95152 0.178101 11.2103 0.178101C13.9423 0.178101 16.484 0.81168 18.0064 1.87447L18.1423 1.96645V4.47695L17.6054 4.01367C16.2054 2.801 13.8777 2.10611 11.2272 2.10611C5.78016 2.10611 2.25637 4.7767 2.25637 8.91205C2.25637 13.0474 5.82093 15.718 11.3462 15.718C13.8981 15.718 16.1816 15.0197 17.6054 13.807L18.1389 13.354V15.8577L18.003 15.9496C16.4569 17.0261 14.017 17.646 11.3258 17.646H11.3292L11.3258 17.6528ZM11.2069 0.82872C4.90006 0.82872 0.825787 4.00687 0.825787 8.91887C0.825787 13.8309 4.94763 17.009 11.3258 17.009C13.8098 17.009 16.0457 16.4708 17.4967 15.5238V14.7097C15.9539 15.7691 13.7622 16.3686 11.3496 16.3686C5.43355 16.3686 1.61414 13.4459 1.61414 8.91887C1.61414 4.39179 5.38598 1.46911 11.2306 1.46911C13.7248 1.46911 15.9675 2.06523 17.4933 3.12121V2.31049C16.0593 1.37714 13.7248 0.82531 11.2069 0.82531V0.82872Z" fill="white"/>
<path d="M11.3262 17.8264C7.99272 17.8264 5.16214 16.9884 3.1335 15.4044C1.08787 13.8034 0.000488281 11.5586 0.000488281 8.91529C0.000488281 6.27195 1.07088 4.02714 3.09952 2.42614C5.10437 0.842175 7.90437 0.00421143 11.2073 0.00421143C13.9699 0.00421143 16.5524 0.651422 18.1019 1.72784L18.3126 1.87431V4.85489L17.4869 4.14296C16.1175 2.95754 13.8374 2.27967 11.2243 2.27967C5.87913 2.27967 2.4267 4.88555 2.4267 8.91188C2.4267 12.9382 5.9267 15.5475 11.3398 15.5475C13.8544 15.5475 16.0937 14.8696 17.4869 13.6774L18.3092 12.9791V15.9495L18.0985 16.0993C16.5218 17.1962 14.0515 17.823 11.316 17.823H11.3262V17.8264ZM11.2073 0.361877C7.98592 0.361877 5.26068 1.1726 3.31699 2.70888C1.3801 4.24174 0.350488 6.39116 0.350488 8.9255C0.350488 11.4598 1.3869 13.6059 3.35097 15.1421C5.31165 16.6784 8.07088 17.4891 11.3262 17.4891C13.9869 17.4891 16.3859 16.8862 17.9049 15.8268L17.966 15.786V13.7524L17.7214 13.9635C16.2636 15.2035 13.9427 15.912 11.35 15.912C5.72282 15.912 2.0869 13.1699 2.0869 8.93232C2.0869 4.69479 5.67524 1.95266 11.2311 1.95266C13.9257 1.95266 16.2908 2.66459 17.7214 3.90111L17.966 4.11571V2.07869L17.9049 2.03782C16.4063 0.998874 13.9053 0.375505 11.2073 0.375505V0.365287V0.361877ZM11.3262 17.1894C4.83932 17.1894 0.652915 13.9431 0.652915 8.9255C0.652915 3.90791 4.79855 0.65824 11.2073 0.65824C13.7456 0.65824 16.1311 1.22369 17.5922 2.17066L17.6738 2.22177V3.45827L17.3985 3.27093C15.883 2.22517 13.6947 1.64949 11.2345 1.64949C5.49855 1.64949 1.79126 4.50743 1.79126 8.9255C1.79126 13.3436 5.54612 16.2015 11.3534 16.2015C13.732 16.2015 15.8762 15.6259 17.3985 14.5767L17.6738 14.3893V15.6259L17.5922 15.6769C16.1209 16.6375 13.834 17.1894 11.3228 17.1894H11.3262ZM11.2073 1.00228C5.00583 1.00228 0.999517 4.11231 0.999517 8.9187C0.999517 13.7251 5.05 16.8351 11.3228 16.8351C13.7184 16.8351 15.8966 16.3242 17.317 15.4283V15.0297C15.7573 16.004 13.6505 16.5388 11.3466 16.5388C5.32864 16.5388 1.43787 13.5446 1.43787 8.91529C1.43787 4.28603 5.28107 1.29182 11.2311 1.29182C13.6165 1.29182 15.7641 1.82663 17.3204 2.79744V2.4023C15.9102 1.52005 13.6335 0.995468 11.2073 0.995468V1.00228Z" fill="white"/>
<path d="M21.7715 0.740051H23.2055V8.28857H38.9249V0.740051H40.3589V17.1009H38.9249V9.55235H23.2055V17.1009H21.7715V0.740051Z" fill="white"/>
<path d="M40.536 17.2748H38.752V9.72629H23.3792V17.2748H21.5952V0.569946H23.3792V8.11847H38.752V0.569946H40.536V17.2748ZM39.102 16.9274H40.186V0.913994H39.102V8.46251H23.0326V0.913994H21.9486V16.9274H23.0326V9.37883H39.102V16.9274Z" fill="white"/>
<path d="M40.6881 17.4178H38.6085V9.86926H23.5381V17.4178H21.4585V0.416565H23.5381V7.96511H38.6085V0.416565H40.6881V17.4178ZM39.2507 16.7774H40.0391V1.06038H39.2507V8.6089H22.8823V1.06038H22.0939V16.7774H22.8823V9.22886H39.2507V16.7774Z" fill="white"/>
<path d="M40.8613 17.5913H38.4283V10.0428H23.7079V17.5913H21.2749V0.242676H23.7079V7.79121H38.4283V0.242676H40.8613V17.5913ZM38.7749 17.2439H40.5079V0.590122H38.7749V8.13864H23.3511V0.590122H21.6215V17.2439H23.3511V9.69536H38.7749V17.2439ZM40.2089 16.9475H39.0705V9.39901H23.0521V16.9475H21.9137V0.883066H23.0521V8.43161H39.0705V0.883066H40.2089V16.9475ZM39.4205 16.6001H39.8589V1.22711H39.4205V8.77563H22.7055V1.22711H22.2671V16.6001H22.7055V9.05157H39.4205V16.6001Z" fill="white"/>
<path d="M52.2026 0.740051H56.5079L64.7652 17.1009H63.2361L61.0953 12.8702H47.588L45.4472 17.1009H43.9419L52.1992 0.740051H52.2026ZM60.5312 11.6507L55.6584 2.0481H53.0215L48.1487 11.6507H60.5312Z" fill="white"/>
<path d="M65.0485 17.2748H63.1286L60.9878 13.0441H47.6946L45.5538 17.2748H43.6577L52.0917 0.569946H56.6145L65.0485 17.2748ZM63.3393 16.9274H64.4776L56.3936 0.913994H52.3058L44.2218 16.9274H45.3364L47.4771 12.6966H61.1985L63.3393 16.9274ZM60.8111 11.8246H47.8679L52.914 1.86777H55.7616L60.8077 11.8246H60.8111ZM48.4354 11.4772H60.247L55.5543 2.21863H53.1349L48.4422 11.4772H48.4388H48.4354Z" fill="white"/>
<path d="M65.2898 17.4178H63.0369L60.8961 13.1871H47.7898L45.649 17.4178H43.4165L52 0.416565H56.7063L65.2898 17.4178ZM63.4345 16.7774H64.2398L56.3053 1.06038H52.401L44.4665 16.7774H45.2481L47.3888 12.5467H61.2937L63.4345 16.7774ZM61.0524 11.9744H47.6233L52.8223 1.72461H55.8568L61.0558 11.9744H61.0524ZM48.6767 11.334H60.0058L55.4592 2.37183H53.2233L48.6767 11.334Z" fill="white"/>
<path d="M65.5703 17.5913H62.93L60.7892 13.3606H47.9004L45.7596 17.5913H43.1431L51.9033 0.242676H56.8237L65.5838 17.5913H65.5804H65.5703ZM63.1406 17.2439H65.0028L56.5926 0.590122H52.1037L43.6936 17.2439H45.5319L47.6727 13.0132H60.9965L63.1372 17.2439H63.1406ZM64.5169 16.9475H63.3173L61.1766 12.7168H47.4858L45.345 16.9475H44.1693L52.277 0.883066H56.3989L64.5067 16.9475H64.5169ZM63.5348 16.6001H63.9494L56.1916 1.22711H52.4979L44.7402 16.6001H45.1309L47.2717 12.3694H61.394L63.5348 16.6001ZM61.3329 12.1445H47.3397L52.712 1.54731H55.9605L61.3329 12.1445ZM47.9037 11.7971H60.7654L55.7465 1.89136H52.9261L47.9071 11.7971H47.9037ZM60.2795 11.5007H48.3829L53.1028 2.19112H55.5562L60.2761 11.5007H60.2795ZM48.9537 11.1533H59.712L55.3455 2.53857H53.3203L48.9537 11.1533Z" fill="white"/>
<path d="M68.3159 0.740051H70.9528L78.7174 15.0911H79.5907L87.5183 0.740051H90.1552V17.1009H88.7926V2.21161H88.181L80.2057 16.7023H78.0887L70.3004 2.21161H69.6887V17.1009H68.3261V0.740051H68.3227H68.3159Z" fill="white"/>
<path d="M90.3314 17.2748H88.6188V2.38554H88.2824L80.3072 16.8763H77.9829L70.1945 2.38554H69.8581V17.2748H68.1455V0.569946H71.061L78.8256 14.921H79.4916L87.4193 0.569946H90.3348V17.2748H90.3314ZM88.9688 16.9274H89.9814V0.913994H87.6232L79.6955 15.2651H78.6149L70.8504 0.913994H68.4921V16.9274H69.5081V2.03809H70.3984L78.1868 16.5288H80.0965L88.0717 2.03809H88.962V16.9274H88.9654H88.9688Z" fill="white"/>
<path d="M90.4761 17.4178H88.4611V2.52852H88.3659L80.3907 17.0192H77.8863L70.098 2.52852H70.0028V17.4178H67.9878V0.416565H71.1378L78.9024 14.7676H79.3883L87.3159 0.416565H90.4659V17.4178H90.4693H90.4761ZM89.1135 16.7774H89.8305V1.06038H87.7067L79.7791 15.4114H78.5252L70.7606 1.06038H68.6436V16.7774H69.3606V1.88812H70.4888L78.2771 16.3788H80.0067L87.982 1.88812H89.1101V16.7774H89.1135Z" fill="white"/>
<path d="M90.6494 17.5913H88.2878V3.02909L80.4926 17.1928H77.781L70.1761 3.04272V17.5913H67.8145V0.242676H71.2431L79.0077 14.5937H79.2863L87.214 0.242676H90.6426V17.5913H90.6528H90.6494ZM88.6411 17.2439H90.3028V0.590122H87.4314L79.5038 14.9412H78.8106L71.046 0.590122H68.1746V17.2439H69.8363V2.35462H70.2101L77.9984 16.8453H80.2955L88.2708 2.35462H88.6479V17.2439H88.6411ZM90.0038 16.9475H88.9368V2.05827H88.0873L80.112 16.549H78.1717L70.3834 2.05827H69.5339V16.9475H68.4669V0.883066H70.8625L78.6271 15.2341H79.6737L87.6013 0.883066H90.0038V16.9475ZM89.2868 16.6001H89.6538V1.22711H87.8086L79.881 15.5782H78.4198L70.6552 1.22711H68.8169V16.6001H69.1839V1.71082H70.5941L78.3824 16.2016H79.9047L87.88 1.71082H89.2868V16.6001Z" fill="white"/>
<path d="M94.8633 0.739677H111.099V2.00003H96.2973V8.31205H109.689V9.52472H96.2973V15.8367H111.099V17.0971H94.8633V0.736267V0.739677Z" fill="white"/>
<path d="M111.272 17.2748H94.6899V0.569946H111.272V2.17776H96.4705V8.14231H109.862V9.70585H96.4705V15.6704H111.272V17.2782V17.2748ZM95.0365 16.9274H110.922V16.0144H96.1205V9.35839H109.512V8.49318H96.1205V1.83712H110.922V0.924212H95.0365V16.9376V16.9274Z" fill="white"/>
<path d="M111.423 17.4178H94.5381V0.416565H111.423V2.32414H96.6211V7.99234H110.013V9.85223H96.6211V15.5204H111.423V17.428V17.4178ZM95.1837 16.7774H110.774V16.1574H95.9721V9.20501H109.364V8.63274H95.9721V1.68034H110.774V1.06038H95.1837V16.7774Z" fill="white"/>
<path d="M111.6 17.5913H94.3652V0.242676H111.6V2.4977H96.7982V7.81844H110.19V10.0258H96.7982V15.3465H111.6V17.5982V17.588V17.5913ZM94.7152 17.2439H111.247V15.6872H96.4448V9.67151H109.837V8.15908H96.4448V2.14343H111.247V0.586713H94.7152V17.2405V17.2439ZM110.955 16.9475H95.0177V0.883066H110.955V1.84708H96.1526V8.45205H109.544V9.37175H96.1526V15.9767H110.955V16.9407V16.9475ZM95.3609 16.6069H110.601V16.3344H95.7992V9.03452H109.191V8.80971H95.7992V1.50985H110.601V1.23733H95.3609V16.6069Z" fill="white"/>
<path d="M115 0.740004C119.282 0.740004 121.494 0.600342 125.826 0.600342C130.485 0.600342 134.016 3.00865 134.016 6.11527C134.016 8.78246 131.331 11 127.828 11.419L133.757 17.0974H131.756L126.064 11.4905H116.417V17.0974H115.007V0.736595H115.003L115 0.740004ZM126.557 10.2779C130.108 10.2779 132.582 8.2204 132.582 6.14251C132.582 4.06462 129.968 1.88795 125.85 1.88795C122.014 1.88795 119.543 2.02761 116.414 2.02761V10.254C118.082 10.254 123.169 10.2779 126.553 10.2779H126.557Z" fill="white"/>
<path d="M134.19 17.2744H131.685L131.634 17.2233L125.994 11.6607H116.595V17.2676H114.834V0.562679H115.008C117.138 0.562679 118.79 0.525211 120.383 0.491148C121.991 0.457084 123.656 0.419617 125.831 0.419617C130.598 0.419617 134.193 2.8654 134.193 6.10827C134.193 8.75162 131.699 10.9964 128.209 11.538L134.19 17.2676V17.2744ZM131.832 16.9337H133.327L127.445 11.2962L127.808 11.2553C131.247 10.8431 133.84 8.63579 133.84 6.12189C133.84 3.07659 130.398 0.780692 125.827 0.780692C123.656 0.780692 121.998 0.818159 120.39 0.852223C118.837 0.886287 117.234 0.916951 115.178 0.923764V16.9371H116.238V11.3302H126.133L126.184 11.3813L131.825 16.944H131.828L131.832 16.9337ZM126.558 10.4514C124.567 10.4514 121.991 10.4412 119.864 10.4378C118.372 10.4344 117.104 10.4276 116.411 10.4276H116.238V1.8537H116.411C117.893 1.8537 119.228 1.81963 120.632 1.78898C122.201 1.75151 123.829 1.71404 125.844 1.71404C130.163 1.71404 132.749 3.96224 132.749 6.14232C132.749 8.32241 130.381 10.4514 126.551 10.4514H126.554H126.558ZM116.591 10.0801C117.308 10.0801 118.491 10.0801 119.87 10.0903C121.994 10.0937 124.57 10.1039 126.558 10.1039C129.382 10.1039 132.406 8.50976 132.406 6.13893C132.406 4.13257 129.952 2.05808 125.851 2.05808C123.836 2.05808 122.215 2.09555 120.645 2.13302C119.293 2.16709 118.008 2.19434 116.588 2.19775V10.0767H116.591V10.0801Z" fill="white"/>
<path d="M134.556 17.4181H131.623L125.932 11.8112H116.74V17.4181H114.684V0.416866H115.01C117.141 0.416866 118.789 0.379398 120.383 0.345335C121.99 0.311271 123.662 0.273804 125.83 0.273804C130.682 0.273804 134.342 2.7843 134.342 6.11233C134.342 8.75568 131.933 11.0039 128.528 11.6375L134.566 17.4181H134.563H134.556ZM131.892 16.7743H132.959L127.114 11.181L127.787 11.1027C131.154 10.7007 133.693 8.55471 133.693 6.11915C133.693 3.20329 130.24 0.924423 125.826 0.924423C123.662 0.924423 121.997 0.96189 120.393 0.995954C118.877 1.03002 117.314 1.06067 115.326 1.06748V16.7845H116.091V11.1776H126.193L131.885 16.7845H131.888L131.892 16.7743ZM126.557 10.5917C124.566 10.5917 121.99 10.5815 119.863 10.5781C118.371 10.5781 117.103 10.5679 116.414 10.5679H116.087V1.69767H116.414C117.895 1.69767 119.224 1.6636 120.634 1.63294C122.204 1.59547 123.832 1.558 125.85 1.558C129.316 1.558 132.901 3.26801 132.901 6.13617C132.901 8.28219 130.471 10.5951 126.553 10.5951L126.557 10.5917ZM116.737 9.92066C117.464 9.92066 118.582 9.92065 119.863 9.93087C121.987 9.93428 124.562 9.94451 126.55 9.94451C129.306 9.94451 132.252 8.41164 132.252 6.12937C132.252 4.19454 129.856 2.1984 125.847 2.1984C123.838 2.1984 122.214 2.23587 120.644 2.27335C119.333 2.30741 118.092 2.33466 116.733 2.33807V9.92407L116.737 9.92066Z" fill="white"/>
<path d="M134.991 17.5916H131.552L131.501 17.5405L125.861 11.9779H116.917V17.5848H114.508V0.236141H115.007C117.131 0.236141 118.772 0.198673 120.356 0.16461H120.393C122.001 0.127139 123.662 0.0930786 125.827 0.0930786C130.781 0.0930786 134.516 2.67852 134.516 6.10533C134.516 8.72484 132.218 11.0003 128.885 11.7327L134.991 17.5848V17.5916ZM131.699 17.2476H134.128L128.161 11.5317L128.498 11.4704C131.838 10.8504 134.172 8.6499 134.172 6.11555C134.172 2.88631 130.587 0.450744 125.834 0.450744C123.669 0.450744 122.007 0.488211 120.403 0.522275L120.363 0.348557V0.522275C118.779 0.556339 117.131 0.593816 115.011 0.593816H114.861V17.2476H116.567V11.6407H126.003L126.054 11.6918L131.695 17.2544H131.699V17.2476ZM133.391 16.9478H131.821L131.77 16.8967L126.129 11.3341H116.271V16.941H115.157V0.876541H115.33C117.298 0.876541 118.854 0.839074 120.359 0.80501H120.393C122.014 0.76754 123.672 0.733469 125.83 0.733469C130.339 0.733469 133.873 3.09069 133.873 6.10192C133.873 8.62605 131.27 10.847 127.818 11.2592L127.505 11.2966L133.398 16.9376H133.394L133.391 16.9478ZM131.96 16.6072H132.521L126.724 11.0548L127.767 10.9288C131.046 10.537 133.517 8.46595 133.517 6.11214C133.517 3.29507 130.139 1.09114 125.823 1.09114C123.669 1.09114 122.014 1.12861 120.41 1.16268H120.359C118.898 1.19674 117.389 1.22739 115.5 1.23421V16.6038H115.915V10.9969H126.268L126.319 11.048L131.96 16.6106V16.6072ZM126.554 10.7755C124.658 10.7755 122.238 10.7653 120.176 10.7618H119.802C118.334 10.7584 117.09 10.7516 116.411 10.7516H115.911V1.53738H116.411C117.882 1.53738 119.207 1.50331 120.607 1.47266C122.191 1.43519 123.815 1.39772 125.844 1.39772C129.395 1.39772 133.071 3.17244 133.071 6.14962C133.071 8.37398 130.577 10.7823 126.547 10.7823H126.551L126.554 10.7755ZM116.261 10.4008H116.411C117.09 10.4008 118.334 10.4008 119.802 10.411H120.176C122.238 10.4212 124.661 10.4246 126.554 10.4246C130.363 10.4246 132.728 8.20026 132.728 6.1394C132.728 3.38364 129.232 1.73494 125.851 1.73494C123.822 1.73494 122.204 1.77242 120.638 1.80989C119.218 1.84395 117.892 1.87461 116.418 1.87461H116.268V10.3974H116.265L116.261 10.4008ZM126.554 10.1283C124.563 10.1283 121.987 10.1181 119.867 10.1146C118.582 10.1146 117.464 10.1044 116.74 10.1044H116.567V2.17437H116.74C118.103 2.17096 119.34 2.14031 120.645 2.10965C122.211 2.07218 123.829 2.03471 125.851 2.03471C129.969 2.03471 132.429 4.12282 132.429 6.1394C132.429 8.52386 129.391 10.1249 126.551 10.1249L126.554 10.1283ZM116.907 9.76719C117.634 9.76719 118.677 9.76718 119.86 9.7774C121.984 9.7808 124.556 9.79103 126.547 9.79103C129.218 9.79103 132.076 8.3297 132.076 6.14962C132.076 4.30336 129.745 2.39238 125.844 2.39238C123.825 2.39238 122.208 2.42985 120.645 2.46732C119.391 2.49458 118.201 2.52523 116.903 2.53205V9.7706L116.907 9.76719Z" fill="white"/>
<path d="M138.066 0.740051H139.5V17.1009H138.066V0.740051Z" fill="white"/>
<path d="M139.674 17.2748H137.89V0.569946H139.674V17.2748ZM138.24 16.9274H139.324V0.913994H138.24V16.9274Z" fill="white"/>
<path d="M139.826 17.4178H137.746V0.416565H139.826V17.4178ZM138.388 16.7774H139.177V1.06038H138.388V16.7774Z" fill="white"/>
<path d="M139.999 17.5913H137.57V0.242676H139.999V17.5913ZM137.913 17.2439H139.643V0.590122H137.913V17.2439ZM139.35 16.9475H138.212V0.883066H139.35V16.9475ZM138.559 16.6001H138.997V1.22711H138.559V16.6001Z" fill="white"/>
</g>
<defs>
<clipPath id="clip0_567_1872">
<rect width="140" height="17.8261" fill="white"/>
</clipPath>
</defs>
</svg>
