<svg width="8" height="8" viewBox="0 0 8 8" fill="none" xmlns="http://www.w3.org/2000/svg">
<g clip-path="url(#clip0_3307_7463)">
<path d="M0.592369 0C0.459533 0 0.351828 0.106807 0.35093 0.239644L0.34375 1.04115C0.34375 1.17578 0.451455 1.28438 0.585189 1.28438H4.85031C5.06572 1.28438 5.17342 1.54467 5.02084 1.69635L6.71809 0H0.592369Z" fill="#32464D"/>
<path d="M7.62888 0.241439C7.62888 0.107705 7.52117 0 7.38744 0H6.71967L5.02331 1.69635L4.65532 2.06435L0.0706814 6.64899C-0.0235605 6.74323 -0.0235605 6.89581 0.0706814 6.99095L0.638825 7.55909C0.733067 7.65334 0.885649 7.65334 0.980788 7.55909L5.93342 2.60646L7.62978 0.910107V0.241439H7.62888Z" fill="#32464D"/>
<path d="M5.93359 2.60643C6.08618 2.45385 6.34557 2.56245 6.34557 2.77696V7.04208C6.34557 7.17671 6.45507 7.28442 6.5888 7.28352L7.3903 7.27634C7.52314 7.27544 7.62995 7.16774 7.62995 7.0349V0.90918L5.93359 2.60553V2.60643Z" fill="#32464D"/>
</g>
<defs>
<clipPath id="clip0_3307_7463">
<rect width="7.63" height="7.63" fill="white"/>
</clipPath>
</defs>
</svg>
