<svg width="47" height="47" viewBox="0 0 47 47" fill="none" xmlns="http://www.w3.org/2000/svg">
<path d="M23.3333 0C18.7184 0 14.2072 1.36848 10.37 3.93238C6.53289 6.49628 3.5422 10.1404 1.77615 14.4041C0.01011 18.6677 -0.451968 23.3592 0.448354 27.8854C1.34868 32.4117 3.57096 36.5693 6.83419 39.8325C10.0974 43.0957 14.255 45.318 18.7812 46.2183C23.3075 47.1186 27.999 46.6566 32.2626 44.8905C36.5262 43.1245 40.1704 40.1338 42.7343 36.2966C45.2982 32.4595 46.6667 27.9482 46.6667 23.3333C46.6667 20.2692 46.0631 17.235 44.8905 14.4041C43.7179 11.5731 41.9992 9.00088 39.8325 6.83418C37.6658 4.66747 35.0936 2.94875 32.2626 1.77614C29.4317 0.603535 26.3975 0 23.3333 0ZM18.6667 33.8333V12.8333L32.6667 23.3333L18.6667 33.8333Z" fill="white" fill-opacity="0.55"/>
</svg>
