<svg width="20" height="20" viewBox="0 0 20 20" fill="none" xmlns="http://www.w3.org/2000/svg">
<path d="M1.37976 3.4494H6.8988V1.37976C6.89949 1.01413 7.04505 0.662975 7.30375 0.40427C7.56177 0.146255 7.91293 0.000690159 8.27855 0H17.9369C18.3025 0.000690159 18.6536 0.145565 18.9124 0.40427C19.1711 0.662975 19.3159 1.01413 19.3166 1.37976V17.9369C19.3159 18.3025 19.1704 18.6536 18.9124 18.9116C18.6536 19.1704 18.3025 19.3159 17.9369 19.3166H1.37976C1.01413 19.3159 0.663665 19.1704 0.40496 18.9116C0.146255 18.653 0.000690114 18.3025 0 17.9369V4.82916C0.000690114 4.46352 0.146255 4.11237 0.40496 3.85367C0.662975 3.59565 1.01413 3.45009 1.37976 3.4494ZM11.728 17.9369H14.4875V14.4875H11.728V17.9369ZM8.27855 17.9369H10.3482V14.4875C10.3489 14.1218 10.4945 13.7707 10.7532 13.5126C11.0112 13.254 11.3624 13.1084 11.728 13.1077H14.4875C14.8531 13.1084 15.2043 13.254 15.463 13.5126C15.721 13.7707 15.8665 14.1218 15.8673 14.4875V17.9369H17.9369L17.9375 1.37976H8.27855V17.9369ZM1.37976 17.9369H6.8988V4.82916H1.37976V17.9369ZM10.3482 9.65836C10.3482 9.79491 10.3889 9.92809 10.4648 10.0419C10.54 10.155 10.6483 10.2434 10.7738 10.2957C10.9001 10.3482 11.0387 10.3613 11.1726 10.3351C11.3065 10.3082 11.4293 10.2426 11.5258 10.1461C11.6224 10.0495 11.6879 9.92664 11.7148 9.79282C11.7411 9.659 11.728 9.52036 11.6755 9.39409C11.6231 9.26855 11.5348 9.16018 11.4216 9.08503C11.3078 9.00915 11.1746 8.96844 11.0381 8.96844C10.8553 8.96844 10.6794 9.04087 10.5504 9.17055C10.4206 9.29955 10.3482 9.47545 10.3482 9.65836ZM10.3482 6.8988C10.3482 7.03539 10.3889 7.16855 10.4648 7.28237C10.54 7.39551 10.6483 7.48382 10.7738 7.53625C10.9001 7.58868 11.0387 7.60179 11.1726 7.57557C11.3065 7.54866 11.4293 7.48313 11.5258 7.38655C11.6224 7.28996 11.6879 7.16716 11.7148 7.03333C11.7411 6.89949 11.728 6.76083 11.6755 6.63457C11.6231 6.50902 11.5348 6.40071 11.4216 6.32551C11.3078 6.24962 11.1746 6.20892 11.0381 6.20892C10.8553 6.20892 10.6794 6.28135 10.5504 6.41105C10.4206 6.54006 10.3482 6.71598 10.3482 6.8988ZM10.3482 4.13928C10.3482 4.27587 10.3889 4.40902 10.4648 4.52285C10.54 4.63599 10.6483 4.7243 10.7738 4.77673C10.9001 4.82916 11.0387 4.84226 11.1726 4.81605C11.3065 4.78915 11.4293 4.72361 11.5258 4.62703C11.6224 4.53045 11.6879 4.40765 11.7148 4.27381C11.7411 4.13997 11.728 4.0013 11.6755 3.87505C11.6231 3.7495 11.5348 3.64118 11.4216 3.56599C11.3078 3.4901 11.1746 3.4494 11.0381 3.4494C10.8553 3.4494 10.6794 3.52184 10.5504 3.65154C10.4206 3.78055 10.3482 3.95646 10.3482 4.13928ZM14.4875 9.65836C14.4875 9.79491 14.5282 9.92809 14.6041 10.0419C14.6793 10.155 14.7875 10.2434 14.9131 10.2957C15.0394 10.3482 15.1781 10.3613 15.3119 10.3351C15.4457 10.3082 15.5685 10.2426 15.6651 10.1461C15.7617 10.0495 15.8272 9.92664 15.8541 9.79282C15.8804 9.659 15.8673 9.52036 15.8148 9.39409C15.7624 9.26855 15.6741 9.16018 15.5609 9.08503C15.4471 9.00915 15.3139 8.96844 15.1774 8.96844C14.9945 8.96844 14.8186 9.04087 14.6896 9.17055C14.5599 9.29955 14.4875 9.47545 14.4875 9.65836ZM14.4875 6.8988C14.4875 7.03539 14.5282 7.16855 14.6041 7.28237C14.6793 7.39551 14.7875 7.48382 14.9131 7.53625C15.0394 7.58868 15.1781 7.60179 15.3119 7.57557C15.4457 7.54866 15.5685 7.48313 15.6651 7.38655C15.7617 7.28996 15.8272 7.16716 15.8541 7.03333C15.8804 6.89949 15.8673 6.76083 15.8148 6.63457C15.7624 6.50902 15.6741 6.40071 15.5609 6.32551C15.4471 6.24962 15.3139 6.20892 15.1774 6.20892C14.9945 6.20892 14.8186 6.28135 14.6896 6.41105C14.5599 6.54006 14.4875 6.71598 14.4875 6.8988ZM14.4875 4.13928C14.4875 4.27587 14.5282 4.40902 14.6041 4.52285C14.6793 4.63599 14.7875 4.7243 14.9131 4.77673C15.0394 4.82916 15.1781 4.84226 15.3119 4.81605C15.4457 4.78915 15.5685 4.72361 15.6651 4.62703C15.7617 4.53045 15.8272 4.40765 15.8541 4.27381C15.8804 4.13997 15.8673 4.0013 15.8148 3.87505C15.7624 3.7495 15.6741 3.64118 15.5609 3.56599C15.4471 3.4901 15.3139 3.4494 15.1774 3.4494C14.9945 3.4494 14.8186 3.52184 14.6896 3.65154C14.5599 3.78055 14.4875 3.95646 14.4875 4.13928Z" fill="#334454"/>
</svg>
