<svg width="140" height="157" viewBox="0 0 140 157" fill="none" xmlns="http://www.w3.org/2000/svg">
<g clip-path="url(#clip0_346_8603)">
<path d="M38.2045 0.101886L66.2419 -0.000305176C65.9224 5.91657 63.7647 22.2195 47.522 40.9716C33.3588 57.3222 15.8419 63.2016 9.33118 65.2965C5.57292 66.5058 2.36516 67.2347 0.102051 67.6776L0.142827 55.0195C4.83894 53.0234 15.8996 47.3449 25.5739 34.4893C36.6482 19.7669 37.987 4.84356 38.2045 0.101886Z" fill="white"/>
<path d="M76.7224 0.0885315L106.092 0.122595C103.638 10.7982 95.952 31.8666 72.7909 52.1959C55.6001 67.2895 37.1486 72.9884 29.2277 75.3456C17.5826 78.8133 7.41221 79.9647 0.0961914 80.336L0.13357 71.0093C7.88794 70.1066 28.5006 66.6117 47.8151 49.607C70.4768 29.6593 75.5671 7.18742 76.7224 0.0885315Z" fill="white"/>
<path d="M121.012 0.1698H139.959V25.6733C129.497 39.0297 112.122 57.4003 86.4433 72.5689C59.3268 88.5857 35.3841 93.5761 29.3967 94.7444C17.5851 97.0403 7.45547 97.7114 0.105469 97.8511L0.115663 84.3482C14.5064 83.483 43.8589 79.6678 71.8283 59.9892C93.389 44.8206 105.914 26.0038 110.471 19.0275C115.306 11.6254 118.721 5.02389 121.012 0.1698Z" fill="white"/>
<path d="M0.105469 112.499V101.186C28.2278 100.812 79.3176 95.4806 122.079 60.0203C128.725 54.5121 134.815 48.7622 139.973 42.9781L139.959 80.9456C131.454 87.1282 120.016 94.2407 106.234 100.481C91.255 107.267 79.4331 110.24 76.3783 110.986C65.0899 113.722 56.4419 114.461 51.0865 114.894C38.1569 115.943 25.8492 115.078 19.6205 114.56" fill="white"/>
<path d="M0.105469 116.085C5.22294 116.961 12.77 118.099 21.9482 118.909C40.7972 120.578 67.1763 122.912 96.855 114.389C107.331 111.381 122.986 105.75 139.959 94.5435L139.987 125.807C134.057 128.324 126.935 130.6 118.857 132.62C116.309 133.257 106.237 135.904 91.9822 137.859C80.9011 139.378 69.4836 140.945 54.2026 140.134C47.0666 139.76 36.7569 138.745 24.6632 135.842C14.9516 133.519 6.7011 130.603 0.112265 127.878V116.085H0.108867H0.105469Z" fill="white"/>
<path d="M139.983 156.976H0.0200195V131.786C5.53507 134.061 11.3491 136.725 17.4623 138.578C64.9297 152.98 109.281 146.191 139.983 137.454V156.976Z" fill="white"/>
</g>
<defs>
<clipPath id="clip0_346_8603">
<rect width="140" height="156.957" fill="white"/>
</clipPath>
</defs>
</svg>
